<svg xmlns="http://www.w3.org/2000/svg" viewBox="0 0 200 200" class="ui-layout-VerticalIcon hsCY-menu-item-icon hsCY-campers" role="presentation" aria-hidden="true" aria-label="Campers icon" cleanup="" fill="white" filter="drop-shadow(3px 5px 2px rgb(0 0 0 / 0.4))"><path d="M160 180h-10a15 15 0 01-14.14-10h-31.72A15 15 0 0190 180H80a15 15 0 01-15-15v-42.09a37.05 37.05 0 01-7.77-3.75a5 5 0 015.54-8.32a23.72 23.72 0 002.73 1.53c6.19-24.79 8.5-33.86 9.36-37.32l-9.71-38.84a12.37 12.37 0 012-10.87C69.82 21.94 74.38 20 79.7 20h80.6c5.32 0 9.88 1.94 12.53 5.34a12.37 12.37 0 012 10.87l-9.71 38.84c.9 3.46 3.17 12.53 9.36 37.32a23.72 23.72 0 002.73-1.53a5 5 0 015.54 8.32a37.05 37.05 0 01-7.77 3.75v16.67a4.82 4.82 0 010 .76V165A15 15 0 01160 180zm-60-20h40a5 5 0 015 5a5 5 0 005 5h10a5 5 0 005-5v-16.57a31.39 31.39 0 01-10 1.57a5 5 0 010-10a19.31 19.31 0 0010-2.5v-11.73c-25.08 5.66-64.92 5.66-90 0v11.73a19.31 19.31 0 0010 2.5a5 5 0 010 10a31.39 31.39 0 01-10-1.57V165a5 5 0 005 5h10a5 5 0 005-5a5 5 0 015-5zm-25-44.42c23.38 5.8 66.6 5.8 90 0c-2.64-10.58-7-28-8.89-35.58H83.9c-1.9 7.59-6.25 25-8.9 35.58zM83.9 70h72.2l9.05-36.21c.39-1.55-.05-2.11-.2-2.3c-.54-.69-2.08-1.49-4.65-1.49H79.7c-2.57 0-4.11.8-4.65 1.49c-.15.19-.59.75-.2 2.3zM35 180a5 5 0 01-5-5v-50.66l-7.23 4.82a5 5 0 01-5.54-8.32L30 112.32v-8l-7.23 4.82a5 5 0 01-5.54-8.32L30 92.32v-7.84l-7.23 4.82a5 5 0 01-5.54-8.3L30 72.46v-8l-7.23 4.84a5 5 0 01-5.54-8.3L30 52.46v-8l-7.23 4.84a5 5 0 01-5.54-8.3l15-10a5 5 0 015.54 0l15 10a5 5 0 11-5.54 8.32L40 44.48v8L52.77 61a5 5 0 11-5.54 8.32L40 64.48v8L52.77 81a5 5 0 11-5.54 8.32L40 84.48v7.84l12.77 8.52a5 5 0 11-5.54 8.32L40 104.34v8l12.77 8.52a5 5 0 11-5.54 8.32L40 124.34V175a5 5 0 01-5 5zm101-30h-30a5 5 0 010-10h30a5 5 0 010 10zm14-40.1a5 5 0 01-4.13-2.19a7.71 7.71 0 00-11.74 0a5 5 0 11-8.26-5.63a17.64 17.64 0 0128.26 0a5 5 0 01-4.13 7.82zm0-59.9H90a5 5 0 010-10h60a5 5 0 010 10z"></path></svg>