<svg xmlns="http://www.w3.org/2000/svg" viewBox="0 0 200 200" class="ui-layout-VerticalIcon hsCY-menu-item-icon hsCY-explore" role="presentation" aria-hidden="true" fill="white" aria-label="Explore icon" cleanup=""><path d="M180 100c0-44.1-35.9-80-80-80s-80 35.9-80 80s35.9 80 80 80s80-35.9 80-80zm-50-17.9c11.6-2.3 22.9-5.8 33.8-10.7c8.1 18 8.3 38.9 0 57.3c-10.9-4.9-22.2-8.5-33.8-10.7c1.7-11.9 1.7-24.1 0-35.9zm29.1-19.6c-9.9 4.4-20.2 7.7-30.8 9.7C125 57 119 42.8 110.8 30.8c20.3 3.2 37.7 15.1 48.3 31.7zm-77.6 63.7c12.3-1.6 24.7-1.6 37 0c-3.3 15-9.5 29.1-18.5 40.9c-9-11.8-15.2-26-18.5-40.9zm-1.7-9.9c-1.4-10.8-1.4-21.9 0-32.7c13.4 1.7 27 1.7 40.4 0c1.4 10.8 1.4 21.9 0 32.7c-13.4-1.7-27-1.7-40.4 0zm38.7-42.5c-12.3 1.6-24.7 1.6-37 0c3.3-15 9.5-29.1 18.5-40.9c9 11.8 15.2 26 18.5 40.9zm-29.3-43C81 42.8 75 57 71.7 72.2c-10.5-2.1-20.9-5.3-30.7-9.8C51.5 45.9 68.9 34 89.2 30.8zm-53 40.5C47 76.2 58.4 79.8 70 82.1c-1.6 11.9-1.6 24 0 35.9c-11.6 2.3-22.9 5.9-33.8 10.8c-8.2-18.2-8.3-39.1 0-57.5zm4.8 66.2c9.9-4.4 20.2-7.7 30.7-9.7C75 143 81 157.2 89.2 169.2C68.9 166 51.5 154.1 41 137.5zm69.8 31.7c8.2-12 14.2-26.2 17.5-41.4c10.5 2.1 20.9 5.3 30.8 9.7c-10.6 16.6-28 28.5-48.3 31.7z"></path></svg>